<svg width="112" height="112" viewBox="0 0 112 112" fill="none" xmlns="http://www.w3.org/2000/svg">
<path d="M24 25.5C24 18.5 36 5 56 5C76 5 88 18.5 88 25.5C88 31.4674 85.0931 73.7709 84.2355 86.1222C84.0845 88.2959 83.0537 90.2886 81.3799 91.6835L72 99.5C72 99.5 66.5 107 56 107C45.5 107 40 99.5 40 99.5L30.6201 91.6834C28.9463 90.2886 27.9155 88.2959 27.7645 86.1222C26.9069 73.7709 24 31.4674 24 25.5Z" fill="#CA3A31"/>
<path fill-rule="evenodd" clip-rule="evenodd" d="M27.5 75L39 78.5L56 79.5L73 78.5L84.5 75L84 81L71.5 84L56 87L40.5 84L28 81L27.5 75Z" fill="white"/>
<path d="M53 46L25.5 41.5L32.5 55.5H52L53 46Z" fill="#554141"/>
<path d="M59 46L86.5 41.5L79.5 55.5H60L59 46Z" fill="#554141"/>
<path fill-rule="evenodd" clip-rule="evenodd" d="M74.231 9.27839C69.3034 6.73266 63.1651 5 56 5C48.9821 5 42.9492 6.66223 38.0741 9.1226L56 46.5L74.231 9.27839Z" fill="#ECD5C2"/>
<path fill-rule="evenodd" clip-rule="evenodd" d="M38.0741 9.1226L56 46.5L24.8207 41.7032C24.3395 33.8223 24 27.5393 24 25.5C24 20.9563 29.056 13.6739 38.0741 9.1226Z" fill="#F8DFCA"/>
<path fill-rule="evenodd" clip-rule="evenodd" d="M87.1793 41.7032C87.6605 33.8223 88 27.5393 88 25.5C88 21.0078 83.0579 13.8386 74.231 9.27839L56 46.5L87.1793 41.7032Z" fill="#F8DFCA"/>
<path d="M92.577 42.923L93.4774 52.8277L84.7806 69.4307L86.4337 42.1551L92.577 42.923Z" fill="#F8DFCA" stroke="black" stroke-width="2"/>
<path d="M19.4642 42.923L18.5637 52.8277L27.2605 69.4307L25.6075 42.1551L19.4642 42.923Z" fill="#F8DFCA" stroke="black" stroke-width="2"/>
<path d="M50 69.5L53 46L56 46.5L59 46L62 69.5L56 73.5L50 69.5Z" fill="#ECD5C2"/>
<path fill-rule="evenodd" clip-rule="evenodd" d="M36.1972 96.331L31.5391 92.4492L36.5 86L39.5 77.5L37.5 72.5L26 54L25.5 41.5L40 69.5H50L56 73.5L62 69.5H72L86.5 41.5L86 54L74.5 72.5L72.5 77.5L75.5 86L80.4609 92.4492L75.8028 96.331L69 90.5L64 91C64 91 57 93.5 56 93.5C55 93.5 48 91 48 91L43 90.5L36.1972 96.331ZM64 87.5L56 89.5L48 87.5L40 86L44 78.5L48 76.5L56 76L64 76.5L68 78.5L72 86L64 87.5Z" fill="#F8DFCA"/>
<path fill-rule="evenodd" clip-rule="evenodd" d="M28.2967 16.552C25.4906 19.7584 24 23.0329 24 25.5C24 27.3756 24.2872 32.8408 24.7076 39.8374C25.5822 40.2667 26.5218 40.5 27.5 40.5C32.1944 40.5 36 35.1274 36 28.5C36 22.2519 32.6175 17.1191 28.2967 16.552Z" fill="#CA3A31"/>
<path fill-rule="evenodd" clip-rule="evenodd" d="M83.7033 16.552C86.5094 19.7584 88 23.0329 88 25.5C88 27.3756 87.7128 32.8408 87.2924 39.8374C86.4178 40.2667 85.4782 40.5 84.5 40.5C79.8056 40.5 76 35.1274 76 28.5C76 22.2519 79.3825 17.1191 83.7033 16.552Z" fill="#CA3A31"/>
<path d="M71.3598 98.7318L71.2659 98.81L71.1947 98.9071L71.1944 98.9075L71.1941 98.908L71.1938 98.9083L71.1936 98.9086L71.1862 98.9185C71.1784 98.9287 71.1654 98.9458 71.1472 98.9692C71.1107 99.016 71.0532 99.0882 70.9749 99.1821C70.8184 99.37 70.5789 99.6445 70.2576 99.9769C69.6144 100.642 68.6472 101.536 67.3653 102.43C64.8037 104.217 60.9995 106 56 106C51.0005 106 47.1963 104.217 44.6347 102.43C43.3528 101.536 42.3856 100.642 41.7424 99.9769C41.4211 99.6445 41.1816 99.37 41.0251 99.1821C40.9468 99.0882 40.8893 99.016 40.8528 98.9692C40.8346 98.9458 40.8216 98.9287 40.8138 98.9185L40.8064 98.9086L40.8062 98.9083L40.8059 98.908L40.8056 98.9075L40.8053 98.9071L40.7341 98.81L40.6402 98.7318L31.2603 90.9152C29.7931 89.6926 28.8939 87.951 28.7621 86.0529C27.9021 73.6673 25 31.4215 25 25.5C25 24.0104 25.6501 22.0424 27.0302 19.8821C28.3994 17.7391 30.4426 15.4785 33.1114 13.4163C38.4443 9.29548 46.2311 6 56 6C65.7689 6 73.5558 9.29548 78.8886 13.4163C81.5574 15.4785 83.6006 17.7391 84.9698 19.8821C86.3499 22.0424 87 24.0104 87 25.5C87 31.4215 84.0979 73.6673 83.2379 86.0529C83.1061 87.9511 82.2069 89.6926 80.7397 90.9152L71.3598 98.7318Z" stroke="black" stroke-width="2"/>
</svg>
