<svg width="112" height="112" viewBox="0 0 112 112" fill="none" xmlns="http://www.w3.org/2000/svg">
<path d="M24 25.5C24 18.5 36 5 56 5C76 5 88 18.5 88 25.5C88 31.4674 85.0931 73.7709 84.2355 86.1222C84.0845 88.2959 83.0537 90.2886 81.3799 91.6835L72 99.5C72 99.5 66.5 107 56 107C45.5 107 40 99.5 40 99.5L30.6201 91.6834C28.9463 90.2886 27.9155 88.2959 27.7645 86.1222C26.9069 73.7709 24 31.4674 24 25.5Z" fill="#CA3A31"/>
<path fill-rule="evenodd" clip-rule="evenodd" d="M27.5 75L39 78.5L56 79.5L73 78.5L84.5 75L84 81L71.5 84L56 87L40.5 84L28 81L27.5 75Z" fill="white"/>
<path d="M53 46L25.5 41.5L32.5 55.5H52L53 46Z" fill="#554141"/>
<path d="M59 46L86.5 41.5L79.5 55.5H60L59 46Z" fill="#554141"/>
<path fill-rule="evenodd" clip-rule="evenodd" d="M74.231 9.27839C69.3034 6.73266 63.1651 5 56 5C48.9821 5 42.9492 6.66223 38.0741 9.1226L56 46.5L74.231 9.27839Z" fill="#ECD5C2"/>
<path fill-rule="evenodd" clip-rule="evenodd" d="M38.0741 9.1226L56 46.5L24.8207 41.7032C24.3395 33.8223 24 27.5393 24 25.5C24 20.9563 29.056 13.6739 38.0741 9.1226Z" fill="#F8DFCA"/>
<path fill-rule="evenodd" clip-rule="evenodd" d="M87.1793 41.7032C87.6605 33.8223 88 27.5393 88 25.5C88 21.0078 83.0579 13.8386 74.231 9.27839L56 46.5L87.1793 41.7032Z" fill="#F8DFCA"/>
<path d="M92.8106 42.7305L93.7341 52.8898L85.4842 69.7769L87.2011 42.3053L92.8106 42.7305Z" fill="#F8DFCA" stroke="black" stroke-width="1.5"/>
<path d="M19.2306 42.7302L18.307 52.8904L26.5148 69.7608L24.7989 42.3056L19.2306 42.7302Z" fill="#F8DFCA" stroke="black" stroke-width="1.5"/>
<path d="M50 69.5L53 46L56 46.5L59 46L62 69.5L56 73.5L50 69.5Z" fill="#ECD5C2"/>
<path fill-rule="evenodd" clip-rule="evenodd" d="M36.1972 96.331L31.5391 92.4492L36.5 86L39.5 77.5L37.5 72.5L26 54L25.5 41.5L40 69.5H50L56 73.5L62 69.5H72L86.5 41.5L86 54L74.5 72.5L72.5 77.5L75.5 86L80.4609 92.4492L75.8028 96.331L69 90.5L64 91C64 91 57 93.5 56 93.5C55 93.5 48 91 48 91L43 90.5L36.1972 96.331ZM64 87.5L56 89.5L48 87.5L40 86L44 78.5L48 76.5L56 76L64 76.5L68 78.5L72 86L64 87.5Z" fill="#F8DFCA"/>
<path fill-rule="evenodd" clip-rule="evenodd" d="M28.2967 16.552C25.4906 19.7584 24 23.0329 24 25.5C24 27.3756 24.2872 32.8408 24.7076 39.8374C25.5822 40.2667 26.5218 40.5 27.5 40.5C32.1944 40.5 36 35.1274 36 28.5C36 22.2519 32.6175 17.1191 28.2967 16.552Z" fill="#CA3A31"/>
<path fill-rule="evenodd" clip-rule="evenodd" d="M83.7033 16.552C86.5094 19.7584 88 23.0329 88 25.5C88 27.3756 87.7128 32.8408 87.2924 39.8374C86.4178 40.2667 85.4782 40.5 84.5 40.5C79.8056 40.5 76 35.1274 76 28.5C76 22.2519 79.3825 17.1191 83.7033 16.552Z" fill="#CA3A31"/>
<path d="M71.5199 98.9238L71.4494 98.9825L71.3958 99.0557L71.3957 99.0557L71.3955 99.056L71.3952 99.0565L71.3944 99.0576L71.3856 99.0693C71.3771 99.0805 71.3633 99.0985 71.3443 99.123C71.3062 99.1718 71.2471 99.2461 71.167 99.3421C71.0068 99.5343 70.7633 99.8134 70.4373 100.151C69.785 100.825 68.8057 101.73 67.5084 102.635C64.9153 104.444 61.0622 106.25 56 106.25C50.9378 106.25 47.0847 104.444 44.4916 102.635C43.1943 101.73 42.215 100.825 41.5627 100.151C41.2367 99.8134 40.9932 99.5343 40.833 99.3421C40.7529 99.2461 40.6938 99.1718 40.6557 99.123C40.6481 99.1132 40.6414 99.1045 40.6355 99.0969C40.6265 99.0853 40.6195 99.076 40.6144 99.0693L40.6056 99.0576L40.6048 99.0565L40.6045 99.056L40.6043 99.0557L40.6042 99.0557L40.5506 98.9825L40.4801 98.9238L31.1003 91.1073C29.5814 89.8416 28.6493 88.0373 28.5127 86.0702C27.6533 73.6932 24.75 31.433 24.75 25.5C24.75 23.9453 25.425 21.9302 26.8195 19.7475C28.2058 17.5778 30.2695 15.2964 32.9586 13.2185C38.3332 9.06536 46.1733 5.75 56 5.75C65.8267 5.75 73.6668 9.06536 79.0414 13.2185C81.7305 15.2964 83.7942 17.5778 85.1805 19.7475C86.575 21.9302 87.25 23.9453 87.25 25.5C87.25 31.433 84.3467 73.6932 83.4873 86.0702C83.3507 88.0373 82.4186 89.8416 80.8997 91.1073L71.5199 98.9238Z" stroke="black" stroke-width="1.5"/>
</svg>
