<svg width="112" height="112" viewBox="0 0 112 112" fill="none" xmlns="http://www.w3.org/2000/svg">
<path d="M24 25.5C24 18.5 36 5 56 5C76 5 88 18.5 88 25.5C88 31.4674 85.0931 73.7709 84.2355 86.1222C84.0845 88.2959 83.0537 90.2886 81.3799 91.6835L72 99.5C72 99.5 66.5 107 56 107C45.5 107 40 99.5 40 99.5L30.6201 91.6834C28.9463 90.2886 27.9155 88.2959 27.7645 86.1222C26.9069 73.7709 24 31.4674 24 25.5Z" fill="#CA3A31"/>
<path fill-rule="evenodd" clip-rule="evenodd" d="M27.5 75L39 78.5L56 79.5L73 78.5L84.5 75L84 81L71.5 84L56 87L40.5 84L28 81L27.5 75Z" fill="white"/>
<path d="M53 46L25.5 41.5L32.5 55.5H52L53 46Z" fill="#554141"/>
<path d="M59 46L86.5 41.5L79.5 55.5H60L59 46Z" fill="#554141"/>
<path fill-rule="evenodd" clip-rule="evenodd" d="M74.231 9.27839C69.3034 6.73266 63.1651 5 56 5C48.9821 5 42.9492 6.66223 38.0741 9.1226L56 46.5L74.231 9.27839Z" fill="#ECD5C2"/>
<path fill-rule="evenodd" clip-rule="evenodd" d="M38.0741 9.1226L56 46.5L24.8207 41.7032C24.3395 33.8223 24 27.5393 24 25.5C24 20.9563 29.056 13.6739 38.0741 9.1226Z" fill="#F8DFCA"/>
<path fill-rule="evenodd" clip-rule="evenodd" d="M87.1793 41.7032C87.6605 33.8223 88 27.5393 88 25.5C88 21.0078 83.0579 13.8386 74.231 9.27839L56 46.5L87.1793 41.7032Z" fill="#F8DFCA"/>
<path d="M93.0404 42.4972L93.9894 52.9367L85.1561 71.0179L86.9674 42.0369L93.0404 42.4972Z" fill="#F8DFCA" stroke="black"/>
<path d="M19.0008 42.497L18.0517 52.9372L26.8432 71.0072L25.0326 42.0371L19.0008 42.497Z" fill="#F8DFCA" stroke="black"/>
<path d="M50 69.5L53 46L56 46.5L59 46L62 69.5L56 73.5L50 69.5Z" fill="#ECD5C2"/>
<path fill-rule="evenodd" clip-rule="evenodd" d="M36.1972 96.331L31.5391 92.4492L36.5 86L39.5 77.5L37.5 72.5L26 54L25.5 41.5L40 69.5H50L56 73.5L62 69.5H72L86.5 41.5L86 54L74.5 72.5L72.5 77.5L75.5 86L80.4609 92.4492L75.8028 96.331L69 90.5L64 91C64 91 57 93.5 56 93.5C55 93.5 48 91 48 91L43 90.5L36.1972 96.331ZM64 87.5L56 89.5L48 87.5L40 86L44 78.5L48 76.5L56 76L64 76.5L68 78.5L72 86L64 87.5Z" fill="#F8DFCA"/>
<path fill-rule="evenodd" clip-rule="evenodd" d="M28.2967 16.552C25.4906 19.7584 24 23.0329 24 25.5C24 27.3756 24.2872 32.8408 24.7076 39.8374C25.5822 40.2667 26.5218 40.5 27.5 40.5C32.1944 40.5 36 35.1274 36 28.5C36 22.2519 32.6175 17.1191 28.2967 16.552Z" fill="#CA3A31"/>
<path fill-rule="evenodd" clip-rule="evenodd" d="M83.7033 16.552C86.5094 19.7584 88 23.0329 88 25.5C88 27.3756 87.7128 32.8408 87.2924 39.8374C86.4178 40.2667 85.4782 40.5 84.5 40.5C79.8056 40.5 76 35.1274 76 28.5C76 22.2519 79.3825 17.1191 83.7033 16.552Z" fill="#CA3A31"/>
<path d="M71.6799 99.1159L71.6329 99.155L71.5971 99.2039L71.597 99.204L71.5969 99.2042L71.5968 99.2043L71.5949 99.2069L71.585 99.22C71.5758 99.2322 71.5613 99.2513 71.5414 99.2767C71.5017 99.3276 71.4409 99.4039 71.3591 99.5022C71.1953 99.6987 70.9476 99.9824 70.6171 100.324C69.9556 101.009 68.9642 101.924 67.6514 102.84C65.0268 104.671 61.1248 106.5 56 106.5C50.8752 106.5 46.9732 104.671 44.3486 102.84C43.0358 101.924 42.0444 101.009 41.3829 100.324C41.0524 99.9824 40.8047 99.6987 40.6409 99.5022C40.5591 99.4039 40.4983 99.3276 40.4586 99.2767C40.4387 99.2513 40.4242 99.2322 40.415 99.22L40.4051 99.2069L40.4032 99.2043L40.4032 99.2042L40.403 99.204L40.4029 99.2039L40.3671 99.155L40.3201 99.1159L30.9402 91.2993C29.3697 89.9906 28.4047 88.1235 28.2633 86.0876C27.4045 73.7191 24.5 31.4444 24.5 25.5C24.5 23.8802 25.2 21.8181 26.6088 19.6129C28.0122 17.4164 30.0963 15.1143 32.8057 13.0206C38.2221 8.83524 46.1155 5.5 56 5.5C65.8845 5.5 73.7779 8.83524 79.1943 13.0206C81.9037 15.1143 83.9878 17.4164 85.3912 19.6129C86.8 21.8181 87.5 23.8802 87.5 25.5C87.5 31.4444 84.5955 73.7191 83.7367 86.0876C83.5953 88.1235 82.6303 89.9906 81.0598 91.2993L71.6799 99.1159Z" stroke="black"/>
</svg>
